<?xml version="1.0" standalone="no"?>
<!DOCTYPE svg PUBLIC "-//W3C//DTD SVG 20010904//EN"
 "http://www.w3.org/TR/2001/REC-SVG-20010904/DTD/svg10.dtd">
<svg version="1.0" xmlns="http://www.w3.org/2000/svg"
 width="2311.000000pt" height="2287.000000pt" viewBox="0 0 2311.000000 2287.000000"
 preserveAspectRatio="xMidYMid meet">

<g transform="translate(0.000000,2287.000000) scale(0.100000,-0.100000)"
fill="#000000" stroke="none">
<path d="M5905 22475 c-396 -75 -725 -336 -915 -730 -65 -134 -290 -643 -852
-1930 -889 -2033 -2850 -6514 -3133 -7160 -304 -693 -359 -830 -391 -975 -24
-115 -30 -326 -10 -437 90 -519 451 -891 976 -1005 127 -28 348 -30 470 -4
368 78 675 317 845 656 105 210 406 890 655 1478 82 195 119 246 200 281 l50
22 2308 -1 c1379 0 2321 -4 2341 -10 50 -14 96 -47 123 -88 14 -21 103 -220
198 -442 192 -451 454 -1047 535 -1215 70 -147 140 -249 245 -359 103 -107
210 -187 335 -249 181 -90 338 -127 540 -127 255 0 466 65 683 210 458 306
641 841 475 1390 -33 110 68 -121 -2433 5590 -562 1284 -1224 2797 -1471 3362
-246 565 -469 1064 -495 1109 -192 332 -452 529 -818 620 -110 27 -350 34
-461 14z m888 -5816 c367 -833 667 -1519 667 -1522 0 -4 -607 -7 -1350 -7
-742 0 -1350 3 -1350 6 0 4 302 695 672 1536 525 1196 674 1526 683 1516 6 -7
312 -695 678 -1529z"/>
<path d="M15250 22480 c-459 -30 -847 -292 -1039 -701 -165 -353 -144 -790 54
-1129 149 -254 393 -453 665 -544 187 -62 84 -58 1740 -68 952 -6 2157 -6
3245 0 1874 10 1759 6 1935 63 420 134 739 503 826 957 23 115 22 319 0 435
-77 402 -354 739 -734 896 -133 55 -261 81 -447 91 -201 11 -6075 11 -6245 0z"/>
<path d="M15260 17569 c-487 -47 -899 -336 -1071 -752 -99 -238 -117 -543 -48
-795 74 -267 248 -506 489 -669 118 -80 308 -157 483 -195 l102 -23 3195 0
c2583 0 3208 2 3265 13 483 90 850 427 971 891 132 510 -60 1035 -483 1318
-149 99 -272 151 -465 196 l-93 21 -3130 2 c-1721 1 -3168 -2 -3215 -7z"/>
<path d="M15500 12660 c-352 -9 -461 -25 -635 -92 -449 -173 -765 -638 -765
-1127 0 -116 24 -252 66 -381 145 -438 456 -712 932 -822 l97 -23 3150 -2
c3437 -4 3267 -6 3471 52 427 123 768 499 855 945 19 98 17 357 -4 462 -51
256 -162 463 -340 635 -104 101 -199 166 -319 223 -196 92 -327 119 -628 130
-261 10 -5456 10 -5880 0z"/>
<path d="M2265 7739 c-605 -5 -645 -7 -725 -27 -204 -50 -333 -112 -495 -237
-216 -168 -373 -418 -437 -697 -28 -125 -31 -354 -5 -478 38 -177 99 -322 199
-472 173 -257 421 -419 773 -502 l90 -21 9960 -2 c8940 -3 9969 -2 10050 12
412 71 763 354 925 746 57 137 81 250 87 409 8 237 -33 418 -143 629 -181 348
-503 567 -921 625 -96 14 -1186 16 -9413 18 -5118 2 -9593 0 -9945 -3z"/>
<path d="M1720 2830 c-376 -39 -696 -221 -905 -515 -389 -546 -268 -1292 274
-1694 146 -108 308 -174 526 -214 l120 -22 9905 0 c8041 0 9922 2 9993 13 264
39 519 166 706 353 330 330 434 799 280 1264 -88 266 -278 497 -529 645 -130
77 -325 137 -520 161 -117 14 -19715 23 -19850 9z"/>
</g>
</svg>
