<?xml version="1.0" standalone="no"?>
<!DOCTYPE svg PUBLIC "-//W3C//DTD SVG 20010904//EN"
 "http://www.w3.org/TR/2001/REC-SVG-20010904/DTD/svg10.dtd">
<svg version="1.0" xmlns="http://www.w3.org/2000/svg"
 width="2146.000000pt" height="2146.000000pt" viewBox="0 0 2146.000000 2146.000000"
 preserveAspectRatio="xMidYMid meet">

<g transform="translate(0.000000,2146.000000) scale(0.100000,-0.100000)"
fill="#000000" stroke="none">
<path d="M18837 21379 c-101 -24 -197 -103 -241 -199 -59 -129 -38 -262 56
-365 63 -69 124 -101 220 -116 150 -23 183 -32 255 -69 226 -117 435 -381 659
-834 407 -821 714 -2098 833 -3466 52 -594 62 -809 68 -1490 8 -930 -22 -1548
-113 -2320 -220 -1873 -775 -3416 -1376 -3828 -95 -65 -165 -90 -282 -103
-156 -16 -266 -88 -320 -208 -38 -86 -43 -154 -16 -242 19 -64 29 -81 88 -139
85 -85 138 -105 267 -104 580 5 1118 500 1534 1412 452 989 763 2428 876 4042
33 477 40 700 39 1300 0 683 -16 1060 -70 1665 -95 1063 -299 2129 -562 2930
-384 1169 -907 1894 -1507 2090 -82 26 -257 56 -326 54 -24 -1 -61 -5 -82 -10z"/>
<path d="M16003 19960 c-100 -21 -194 -91 -244 -182 -32 -59 -34 -69 -34 -158
0 -83 3 -102 28 -151 57 -118 162 -182 321 -199 125 -13 175 -25 264 -66 114
-52 205 -118 322 -233 179 -178 317 -379 479 -701 328 -653 559 -1541 655
-2510 198 -1999 -148 -4041 -867 -5120 -269 -405 -535 -602 -846 -629 -126
-11 -202 -43 -267 -113 -71 -76 -89 -125 -89 -238 1 -119 21 -166 109 -248 80
-75 131 -92 272 -92 364 0 754 192 1080 532 892 930 1412 2896 1353 5116 -32
1205 -230 2305 -570 3159 -229 576 -485 995 -806 1318 -285 288 -557 443 -873
499 -113 20 -235 27 -287 16z"/>
<path d="M13134 18531 c-55 -14 -125 -55 -164 -97 -129 -140 -129 -337 0 -472
73 -77 135 -102 273 -113 258 -20 456 -97 663 -257 248 -192 443 -444 630
-815 201 -397 340 -857 414 -1364 69 -475 69 -1071 0 -1546 -141 -972 -545
-1809 -1055 -2187 -209 -156 -393 -226 -654 -249 -82 -8 -128 -17 -166 -35
-104 -47 -171 -134 -195 -250 -31 -150 51 -306 198 -378 43 -21 60 -23 197
-23 182 1 289 19 473 80 301 101 560 264 807 510 616 612 1006 1568 1122 2745
21 221 24 852 5 1070 -64 707 -220 1316 -478 1858 -84 177 -146 286 -270 472
-127 191 -232 316 -405 485 -322 314 -657 492 -1044 555 -120 20 -291 25 -351
11z"/>
<path d="M5615 17594 c-329 -19 -443 -27 -585 -40 -1529 -138 -2790 -526
-3730 -1146 -476 -314 -934 -779 -1109 -1125 -66 -132 -20 -245 112 -273 38
-7 843 -10 2852 -7 3061 3 2848 -1 3125 58 774 165 1531 714 1976 1434 136
221 266 529 296 702 18 109 -10 181 -87 217 -78 38 -769 117 -1405 162 -209
15 -1272 28 -1445 18z"/>
<path d="M9385 17237 c-63 -29 -90 -75 -120 -203 -80 -350 -230 -692 -445
-1018 -303 -459 -664 -818 -1135 -1129 -202 -133 -205 -136 -221 -172 -36 -86
-5 -172 82 -225 474 -292 793 -552 1053 -860 256 -302 419 -569 545 -895 38
-100 54 -129 91 -165 l46 -45 98 0 c89 0 101 2 139 27 43 29 85 91 109 161 23
67 734 3985 735 4052 2 96 -26 168 -94 240 -38 41 -76 70 -109 85 -59 25 -600
148 -687 155 -37 4 -67 1 -87 -8z"/>
<path d="M267 14270 c-80 -24 -136 -111 -123 -189 14 -89 130 -299 259 -471
89 -117 340 -371 467 -472 203 -162 450 -310 705 -424 l160 -72 -2 -35 c-1
-19 -41 -162 -88 -318 -655 -2163 -1172 -5231 -1449 -8599 -66 -798 -66 -780
5 -845 72 -65 134 -57 391 51 845 356 1420 895 1717 1608 149 358 215 693 231
1181 13 388 31 539 90 776 87 344 264 694 482 954 168 200 420 421 648 567
461 296 1068 505 1730 593 150 20 178 31 216 81 l29 37 6 236 c3 155 9 246 18
266 17 41 48 73 96 98 38 21 56 22 375 27 l335 5 53 28 c29 15 71 46 93 68
101 101 120 238 61 422 -37 115 -75 294 -98 457 -21 156 -30 630 -15 797 40
438 154 828 335 1151 93 166 134 202 228 202 65 0 94 -14 338 -154 208 -120
264 -141 354 -133 81 8 365 80 421 107 50 24 84 72 92 128 9 68 -67 228 -221
462 -121 184 -230 314 -421 505 -195 196 -321 300 -521 431 -373 246 -733 387
-1159 456 l-140 23 -2835 2 c-1559 1 -2848 -2 -2863 -7z"/>
<path d="M5265 7792 c-50 -5 -213 -42 -343 -78 -191 -53 -362 -118 -537 -204
-628 -307 -993 -783 -1090 -1420 -9 -59 -20 -231 -25 -395 -14 -450 -42 -668
-127 -1000 -76 -299 -220 -655 -359 -891 -298 -506 -724 -930 -1259 -1251
-368 -221 -718 -374 -1156 -503 -109 -32 -212 -68 -230 -80 -67 -49 -82 -131
-54 -315 48 -316 178 -570 425 -829 405 -423 1045 -692 1780 -746 98 -8 749
-10 2025 -8 l1880 3 56 26 c107 51 176 145 198 270 7 45 11 290 11 765 0 835
0 829 -103 941 -69 75 -170 113 -301 113 -266 0 -610 157 -839 383 -160 158
-315 406 -407 652 -78 205 -138 535 -127 690 2 39 179 882 392 1875 301 1406
386 1816 382 1853 -9 95 -91 159 -192 149z"/>
</g>
</svg>
