<?xml version="1.0" standalone="no"?>
<!DOCTYPE svg PUBLIC "-//W3C//DTD SVG 20010904//EN"
 "http://www.w3.org/TR/2001/REC-SVG-20010904/DTD/svg10.dtd">
<svg version="1.0" xmlns="http://www.w3.org/2000/svg"
 width="512.000000pt" height="512.000000pt" viewBox="0 0 512.000000 512.000000"
 preserveAspectRatio="xMidYMid meet">

<g transform="translate(0.000000,512.000000) scale(0.100000,-0.100000)"
fill="#000000" stroke="none">
<path d="M2475 4913 c-815 -26 -1574 -493 -1977 -1218 -104 -186 -192 -421
-238 -632 -69 -320 -69 -686 0 -1006 143 -660 572 -1231 1177 -1566 247 -136
561 -236 852 -271 121 -14 421 -14 542 0 518 62 987 286 1363 650 397 385 641
876 706 1419 14 121 14 421 0 542 -90 753 -542 1425 -1205 1792 -366 202 -792
303 -1220 290z m415 -228 c759 -119 1393 -629 1674 -1346 100 -257 140 -476
140 -779 0 -237 -12 -337 -64 -543 -188 -740 -789 -1343 -1532 -1536 -973
-252 -1987 195 -2452 1082 -167 317 -241 623 -241 997 0 300 42 528 141 780
296 748 947 1250 1754 1356 134 17 437 11 580 -11z"/>
<path d="M2489 3861 l-29 -29 0 -1121 c0 -617 -3 -1121 -8 -1121 -4 0 -151
144 -327 321 -176 177 -333 326 -348 333 -82 37 -168 -47 -132 -129 7 -16 206
-222 442 -457 l429 -428 44 0 44 0 438 438 438 437 0 43 c0 61 -41 102 -101
102 l-43 0 -331 -330 c-182 -181 -334 -330 -338 -330 -4 0 -7 504 -7 1121 l0
1121 -29 29 c-23 23 -38 29 -71 29 -33 0 -48 -6 -71 -29z"/>
</g>
</svg>
