<?xml version="1.0" standalone="no"?>
<!DOCTYPE svg PUBLIC "-//W3C//DTD SVG 20010904//EN"
 "http://www.w3.org/TR/2001/REC-SVG-20010904/DTD/svg10.dtd">
<svg version="1.0" xmlns="http://www.w3.org/2000/svg"
 width="2516.000000pt" height="2114.000000pt" viewBox="0 0 2516.000000 2114.000000"
 preserveAspectRatio="xMidYMid meet">

<g transform="translate(0.000000,2114.000000) scale(0.100000,-0.100000)"
fill="#000000" stroke="none">
<path d="M14690 21119 c-41 -5 -99 -16 -130 -24 -145 -41 -142 -40 -1710 -913
-848 -473 -1506 -837 -1840 -1020 -195 -107 -304 -149 -455 -178 -84 -17 -356
-18 -4420 -19 -4318 -2 -4330 -2 -4430 -23 -533 -108 -861 -447 -935 -967 -12
-86 -12 -882 0 -1375 11 -459 -4 -1869 -20 -1932 -22 -82 -40 -108 -94 -135
-163 -82 -342 -233 -434 -366 -136 -197 -193 -384 -213 -697 -17 -266 -6 -854
25 -1275 32 -439 75 -1133 121 -1915 89 -1540 173 -2988 260 -4510 52 -910
115 -1999 140 -2420 24 -421 49 -853 55 -960 22 -414 47 -642 96 -856 34 -152
72 -260 145 -414 302 -629 921 -1036 1674 -1100 94 -8 2888 -10 10155 -8 9523
3 10030 4 10125 21 248 44 440 104 626 196 571 284 943 791 1043 1421 45 277
113 1235 186 2615 22 418 58 1064 80 1435 36 608 321 5437 386 6540 30 520 42
1106 25 1325 -6 83 -20 188 -32 235 -74 291 -256 524 -530 674 -89 49 -143 97
-171 154 l-23 47 -5 2670 -6 2670 -21 96 c-61 276 -170 487 -338 654 -200 201
-462 317 -800 355 -113 12 -8426 11 -8535 -1z m7824 -1219 c198 -19 340 -77
453 -184 121 -114 183 -252 203 -453 13 -131 10 -4568 -4 -4595 -7 -15 -23
-18 -107 -18 l-99 0 0 433 c0 591 -20 829 -96 1137 -109 441 -270 683 -548
819 -115 57 -218 86 -356 99 -59 6 -3648 8 -9415 5 -7968 -4 -9333 -6 -9406
-19 -442 -72 -784 -433 -890 -939 -32 -158 -39 -306 -39 -932 l0 -603 -104 0
-105 0 -8 58 c-4 31 -8 622 -8 1312 0 1133 2 1262 17 1325 28 118 56 182 108
238 59 65 121 100 231 129 l84 23 4450 5 4450 5 81 22 c183 49 152 33 2334
1248 1484 826 1477 823 1567 854 l78 26 755 5 c1435 10 6272 10 6374 0z
m-1222 -4007 c203 -58 310 -160 377 -360 42 -126 53 -232 58 -561 l5 -312
-9138 2 -9139 3 -3 265 c-5 407 18 606 85 738 34 67 127 156 195 186 55 24
173 53 243 59 22 2 3910 3 8640 3 l8600 -1 77 -22z m2250 -2510 c188 -54 299
-153 348 -311 17 -55 17 -70 -1 -392 -11 -184 -136 -2324 -279 -4755 -143
-2431 -271 -4627 -285 -4880 -29 -514 -44 -638 -105 -829 -160 -498 -529 -829
-1059 -948 -95 -21 -113 -21 -1496 -28 -1811 -10 -14334 -10 -16165 0 -1403 7
-1405 7 -1505 29 -612 136 -1009 563 -1115 1201 -14 81 -37 424 -80 1155 -33
572 -130 2210 -215 3640 -190 3196 -255 4307 -299 5118 -34 618 -35 628 -17
680 65 187 187 289 401 332 53 11 1996 13 10930 12 l10865 -2 77 -22z"/>
<path d="M11241 10699 c-132 -15 -198 -65 -230 -172 -13 -45 -16 -168 -19
-894 l-3 -843 -813 0 c-544 0 -832 -4 -871 -11 -102 -19 -168 -65 -199 -141
-34 -81 -37 -215 -34 -1513 3 -1194 5 -1284 21 -1333 28 -82 81 -134 171 -165
20 -7 311 -13 836 -18 443 -4 824 -11 848 -14 l42 -7 0 -783 c0 -501 4 -812
11 -862 15 -110 50 -170 120 -206 91 -46 187 -49 1534 -44 1090 3 1227 6 1290
20 80 19 140 57 169 106 49 84 49 92 55 966 l6 820 845 5 845 5 57 23 c71 29
119 82 144 160 17 54 18 124 22 1321 3 1235 -1 1409 -29 1506 -16 57 -82 119
-149 141 -51 17 -111 19 -897 22 l-843 3 0 792 c0 444 -5 825 -10 867 -6 46
-20 96 -38 130 -23 46 -36 59 -82 82 -31 16 -86 32 -125 38 -87 12 -2568 11
-2674 -1z m1721 -2066 c4 -936 2 -906 73 -978 71 -70 45 -68 970 -74 457 -3
836 -10 843 -14 9 -6 12 -93 12 -378 l0 -369 -789 0 c-511 0 -817 -4 -867 -11
-95 -13 -165 -46 -193 -93 -49 -78 -51 -113 -51 -983 l0 -813 -380 0 -380 0 0
798 c0 475 -4 825 -10 866 -15 100 -51 160 -114 191 -28 13 -82 29 -121 35
-42 6 -387 10 -857 10 l-788 0 0 380 0 379 838 3 c626 3 846 7 873 16 79 27
135 82 161 161 9 27 13 249 16 874 l3 837 379 0 379 0 3 -837z"/>
</g>
</svg>
