<?xml version="1.0" standalone="no"?>
<!DOCTYPE svg PUBLIC "-//W3C//DTD SVG 20010904//EN"
 "http://www.w3.org/TR/2001/REC-SVG-20010904/DTD/svg10.dtd">
<svg version="1.0" xmlns="http://www.w3.org/2000/svg"
 width="2134.000000pt" height="2477.000000pt" viewBox="0 0 2134.000000 2477.000000"
 preserveAspectRatio="xMidYMid meet">

<g transform="translate(0.000000,2477.000000) scale(0.100000,-0.100000)"
fill="#000000" stroke="none">
<path d="M10015 24699 c-742 -53 -1418 -165 -2070 -340 -1673 -451 -3176
-1274 -4455 -2438 -286 -261 -688 -680 -951 -991 -944 -1119 -1642 -2407
-2059 -3800 -227 -762 -365 -1556 -411 -2372 -15 -275 -6 -1048 15 -1298 87
-1010 291 -2001 600 -2915 624 -1848 1676 -3365 3171 -4576 347 -281 842 -626
1250 -871 598 -358 1236 -671 1945 -955 157 -62 308 -128 337 -145 100 -61
171 -149 465 -578 674 -984 1231 -1804 1667 -2458 279 -418 363 -532 469 -639
118 -119 279 -234 371 -264 19 -7 49 -20 66 -30 27 -17 54 -19 242 -19 l212 0
92 40 c159 69 231 121 390 279 l145 146 339 505 c605 901 1162 1722 1716 2526
305 443 351 486 619 579 1353 470 2579 1201 3635 2165 202 185 636 627 809
825 1541 1764 2469 3968 2641 6275 20 274 20 1309 -1 1580 -92 1219 -397 2406
-909 3535 -1020 2250 -2778 4070 -4980 5155 -1112 547 -2279 892 -3490 1029
-441 51 -505 54 -1140 56 -335 2 -664 -1 -730 -6z m1075 -1919 c1264 -68 2403
-368 3507 -924 1345 -677 2492 -1694 3318 -2941 820 -1238 1304 -2637 1431
-4130 21 -250 29 -846 15 -1110 -36 -656 -135 -1266 -307 -1883 -527 -1894
-1684 -3566 -3260 -4714 -720 -524 -1511 -930 -2344 -1202 -373 -122 -414
-137 -512 -186 -150 -75 -243 -143 -368 -269 -113 -113 -128 -134 -531 -736
-437 -651 -1285 -1897 -1331 -1956 l-28 -34 -25 30 c-40 48 -160 218 -512 730
-500 727 -657 958 -823 1215 -355 547 -417 629 -590 774 -221 185 -431 299
-810 436 -1255 455 -2345 1093 -3218 1883 -282 255 -632 629 -875 934 -903
1134 -1486 2532 -1741 4168 -71 451 -96 761 -103 1250 -4 339 -2 425 16 660
68 859 226 1587 513 2353 379 1016 926 1921 1666 2757 252 284 678 691 999
953 1254 1025 2779 1678 4398 1881 499 63 1059 86 1515 61z"/>
<path d="M10455 19085 c-294 -54 -570 -226 -724 -453 -126 -187 -177 -375
-159 -589 28 -328 290 -648 652 -798 354 -147 745 -114 1072 90 90 57 249 205
309 290 154 217 210 484 149 710 -87 326 -383 612 -744 717 -158 46 -405 61
-555 33z"/>
<path d="M10500 15888 c-176 -18 -408 -85 -553 -160 -150 -78 -258 -213 -303
-378 -17 -61 -18 -209 -18 -2690 l0 -2625 27 -81 c57 -173 168 -290 362 -384
141 -69 272 -116 364 -131 36 -6 167 -13 291 -14 196 -3 237 0 315 17 224 51
447 160 573 282 80 77 118 136 153 236 l23 65 0 2635 1 2635 -22 70 c-77 245
-284 395 -676 490 -148 36 -368 49 -537 33z"/>
</g>
</svg>
