<?xml version="1.0" standalone="no"?>
<!DOCTYPE svg PUBLIC "-//W3C//DTD SVG 20010904//EN"
 "http://www.w3.org/TR/2001/REC-SVG-20010904/DTD/svg10.dtd">
<svg version="1.0" xmlns="http://www.w3.org/2000/svg"
 width="2486.000000pt" height="2483.000000pt" viewBox="0 0 2486.000000 2483.000000"
 preserveAspectRatio="xMidYMid meet">

<g transform="translate(0.000000,2483.000000) scale(0.100000,-0.100000)"
fill="#000000" stroke="none">
<path d="M5300 24770 c-496 -7 -617 -15 -912 -60 -823 -125 -1641 -478 -2318
-999 -257 -197 -572 -494 -774 -731 -509 -595 -884 -1310 -1075 -2051 -44
-171 -141 -650 -141 -697 0 -17 -4 -33 -8 -36 -33 -20 -33 -43 -30 -7809 3
-6803 5 -7669 18 -7677 8 -5 11 -10 6 -10 -6 0 -5 -5 2 -12 7 -7 12 -33 12
-58 0 -55 95 -542 140 -715 225 -877 681 -1673 1330 -2326 201 -202 351 -334
565 -494 625 -470 1346 -792 2100 -939 148 -29 392 -66 436 -66 16 0 29 -4 29
-9 0 -5 14 -17 32 -25 28 -14 365 -16 3517 -15 1920 0 3495 4 3506 9 11 5 16
9 10 9 -22 2 22 21 50 21 50 0 259 76 375 136 60 30 149 83 197 117 111 79
270 236 356 352 75 101 183 309 223 430 62 188 86 422 64 630 -70 683 -553
1210 -1246 1357 l-109 23 -3285 5 c-3057 5 -3293 7 -3400 23 -522 79 -920 267
-1235 582 -324 323 -516 734 -592 1265 -17 119 -18 470 -18 7400 0 5924 2
7294 13 7380 79 631 348 1135 784 1466 286 216 598 341 1023 412 91 15 395 17
3395 22 l3295 6 111 22 c144 28 302 81 428 144 295 148 544 396 691 688 183
365 211 819 75 1205 -180 509 -619 884 -1167 996 -104 22 -137 23 -878 30
-947 8 -4931 8 -5595 -1z"/>
<path d="M15996 20965 c-354 -58 -658 -207 -886 -435 -209 -208 -340 -459
-412 -790 -20 -92 -23 -134 -23 -330 0 -213 1 -231 28 -334 60 -236 149 -414
310 -616 33 -41 1044 -1060 2247 -2265 1203 -1204 2193 -2200 2199 -2212 l12
-23 -6548 0 c-4579 0 -6582 -3 -6662 -11 -198 -18 -410 -82 -573 -172 -281
-154 -507 -389 -647 -672 -67 -135 -99 -226 -133 -377 -20 -90 -23 -129 -23
-308 1 -173 4 -221 23 -306 67 -308 204 -566 412 -774 198 -198 440 -334 721
-405 229 -58 -252 -55 6872 -55 4336 0 6557 -3 6557 -10 0 -27 -305 -337
-2270 -2305 -1169 -1172 -2149 -2159 -2177 -2195 -114 -147 -206 -308 -257
-450 -118 -327 -122 -682 -11 -1016 77 -232 206 -435 386 -610 150 -144 296
-240 488 -321 553 -232 1152 -125 1621 290 47 41 1671 1663 3610 3603 3773
3776 3583 3581 3717 3815 96 168 168 383 194 576 15 111 6 362 -16 463 -53
243 -164 469 -326 665 -31 39 -1672 1684 -3646 3656 -3585 3583 -3588 3586
-3711 3667 -186 124 -370 205 -562 247 -105 23 -397 29 -514 10z"/>
</g>
</svg>
