<?xml version="1.0" standalone="no"?>
<!DOCTYPE svg PUBLIC "-//W3C//DTD SVG 20010904//EN"
 "http://www.w3.org/TR/2001/REC-SVG-20010904/DTD/svg10.dtd">
<svg version="1.0" xmlns="http://www.w3.org/2000/svg"
 width="2356.000000pt" height="2358.000000pt" viewBox="0 0 2356.000000 2358.000000"
 preserveAspectRatio="xMidYMid meet">

<g transform="translate(0.000000,2358.000000) scale(0.100000,-0.100000)"
fill="#000000" stroke="none">
<path d="M8505 23343 c-717 -35 -1411 -281 -2015 -713 -181 -130 -319 -248
-495 -424 -551 -552 -913 -1235 -1049 -1976 -47 -260 -68 -533 -87 -1140 -5
-195 -14 -358 -18 -362 -4 -5 -1039 -9 -2301 -10 l-2295 -3 0 -7760 c0 -8247
-2 -7821 46 -8124 112 -704 460 -1355 968 -1808 410 -366 927 -620 1483 -728
328 -64 -46 -59 4547 -62 3052 -2 4178 0 4185 8 8 8 -3 23 -39 52 -50 43 -721
655 -850 776 -39 36 -195 185 -349 331 -283 270 -342 318 -431 348 -46 15
-278 16 -3290 17 -2591 0 -3257 3 -3325 13 -258 39 -407 83 -595 177 -467 232
-746 672 -804 1269 -8 76 -11 2204 -11 7028 l0 6918 1545 0 1545 0 2 -752 3
-753 768 -3 767 -2 0 755 0 755 2315 0 2315 0 2 -752 3 -753 765 0 765 0 3
753 2 752 1540 0 1540 0 2 -767 3 -768 755 0 755 0 0 1540 0 1540 -2281 3
-2281 2 -6 78 c-4 42 -16 232 -27 422 -43 730 -83 1035 -181 1382 -352 1245
-1350 2228 -2632 2592 -404 115 -862 169 -1262 149z m470 -1544 c567 -60 1128
-356 1504 -794 281 -327 456 -702 526 -1125 24 -148 36 -503 29 -842 l-7 -308
-2297 0 -2298 0 -6 43 c-35 253 -33 824 3 1061 94 604 349 1063 795 1428 522
427 1105 606 1751 537z"/>
<path d="M16190 14094 c-704 -33 -1307 -141 -1920 -344 -1239 -410 -2318
-1143 -3158 -2145 -770 -918 -1292 -2025 -1506 -3195 -265 -1447 -62 -2939
579 -4257 267 -549 584 -1031 993 -1511 160 -187 544 -571 733 -733 797 -681
1713 -1168 2703 -1438 807 -220 1678 -291 2521 -205 1906 194 3659 1188 4826
2737 600 796 1018 1701 1234 2675 160 721 201 1498 119 2247 -226 2070 -1398
3950 -3170 5083 -958 613 -2035 974 -3177 1067 -181 14 -635 26 -777 19z m631
-1544 c457 -35 882 -121 1314 -264 1016 -339 1893 -964 2570 -1831 108 -138
311 -441 405 -605 91 -158 241 -464 314 -641 124 -301 251 -733 310 -1060 31
-168 62 -410 76 -588 13 -173 13 -615 0 -796 -75 -1023 -446 -2015 -1058
-2830 -301 -402 -703 -804 -1097 -1098 -1298 -970 -2953 -1303 -4535 -916
-200 49 -586 176 -770 254 -955 402 -1776 1067 -2367 1918 -542 781 -867 1698
-943 2661 -15 195 -12 673 6 876 58 660 230 1289 513 1875 367 758 895 1409
1576 1940 138 108 441 311 605 405 159 92 465 241 644 315 486 200 1080 341
1621 384 159 12 658 13 816 1z"/>
<path d="M17166 8241 c-891 -891 -1544 -1537 -1551 -1533 -5 4 -332 331 -725
727 -393 396 -723 726 -733 734 -17 12 -59 -26 -530 -498 l-512 -511 1260
-1260 c693 -693 1264 -1260 1270 -1260 13 0 4105 4092 4105 4105 0 13 -1022
1035 -1035 1035 -6 0 -703 -693 -1549 -1539z"/>
</g>
</svg>
