<?xml version="1.0" standalone="no"?>
<!DOCTYPE svg PUBLIC "-//W3C//DTD SVG 20010904//EN"
 "http://www.w3.org/TR/2001/REC-SVG-20010904/DTD/svg10.dtd">
<svg version="1.0" xmlns="http://www.w3.org/2000/svg"
 width="2461.000000pt" height="2065.000000pt" viewBox="0 0 2461.000000 2065.000000"
 preserveAspectRatio="xMidYMid meet">

<g transform="translate(0.000000,2065.000000) scale(0.100000,-0.100000)"
fill="#000000" stroke="none">
<path d="M4825 20501 c-1481 -7 -1512 -7 -1640 -28 -438 -72 -787 -201 -1144
-423 -432 -268 -876 -710 -1199 -1197 -372 -559 -612 -1222 -701 -1943 -48
-382 -46 -175 -46 -5765 0 -4976 1 -5290 18 -5450 46 -446 114 -771 242 -1150
421 -1255 1293 -2170 2410 -2528 207 -67 405 -110 655 -144 119 -16 201 -18
695 -16 308 1 2755 3 5438 4 2914 1 4877 5 4877 11 0 5 -82 172 -183 371 -169
334 -262 539 -332 724 -53 142 -122 223 -229 267 l-51 21 -4999 1 c-2750 1
-5038 4 -5085 8 -118 9 -315 50 -438 91 -268 90 -494 229 -712 440 -440 426
-734 1021 -850 1725 -59 357 -55 -43 -59 5505 -2 3571 0 5138 8 5300 29 605
136 1051 360 1490 136 268 280 478 451 659 326 345 715 546 1193 617 l141 21
7675 -2 c8423 -1 7762 4 8028 -60 554 -134 1013 -518 1352 -1130 201 -363 345
-843 390 -1300 6 -63 14 -128 17 -145 3 -16 9 -1159 12 -2540 6 -2405 7 -2512
25 -2567 10 -31 28 -66 40 -77 23 -22 299 -126 716 -271 473 -164 591 -203
598 -195 11 11 17 2235 11 4115 -5 1544 -7 1751 -22 1880 -91 777 -331 1434
-762 2085 -184 278 -340 471 -555 685 -554 554 -1184 842 -1970 900 -167 12
-11884 21 -14375 11z"/>
<path d="M8131 16760 c-803 -56 -1352 -406 -1665 -1061 -137 -287 -204 -568
-306 -1286 -65 -465 -40 -401 -215 -541 -137 -109 -166 -147 -195 -253 -84
-309 -86 -625 -5 -903 56 -192 149 -378 274 -547 77 -104 93 -116 341 -262 80
-47 159 -100 177 -119 17 -18 139 -193 270 -388 131 -195 289 -422 351 -505
163 -218 212 -322 212 -449 0 -168 -109 -350 -257 -429 -115 -61 -170 -69
-598 -77 -310 -7 -417 -12 -520 -28 -477 -74 -854 -255 -1174 -566 -125 -122
-205 -220 -316 -386 -247 -371 -328 -668 -365 -1350 -18 -326 13 -565 96 -738
43 -89 146 -200 229 -246 72 -40 206 -83 320 -102 93 -16 343 -17 3690 -15
2305 1 3611 6 3650 12 155 26 289 93 395 199 83 83 128 158 156 260 15 56 17
117 18 465 1 271 -3 437 -12 515 -66 575 -277 1030 -643 1386 -223 216 -472
366 -783 469 -273 92 -472 121 -891 130 -502 11 -634 42 -763 178 -83 89 -122
191 -122 322 0 158 25 205 302 583 129 174 328 447 442 605 l209 288 31 -8
c98 -25 179 8 292 121 214 215 374 560 419 903 36 278 0 656 -79 811 -59 115
-128 163 -247 170 -61 4 -80 8 -83 21 -3 9 -39 221 -81 471 -133 803 -206
1079 -366 1375 -276 511 -730 826 -1339 930 -250 43 -605 62 -849 45z"/>
<path d="M11040 15863 c0 -30 286 -1359 302 -1400 55 -147 250 -324 418 -380
53 -17 167 -18 2670 -18 2478 0 2618 1 2680 18 200 55 311 156 377 342 l28 80
0 455 c0 411 -2 461 -18 520 -40 139 -104 237 -197 295 -58 37 -173 72 -275
84 -100 12 -5985 16 -5985 4z"/>
<path d="M11878 12556 c-116 -31 -173 -103 -243 -306 -55 -159 -133 -324 -206
-435 -64 -97 -234 -268 -309 -311 -30 -17 -90 -51 -134 -75 -185 -103 -257
-218 -257 -414 -1 -98 10 -227 20 -243 5 -8 849 -11 2991 -12 2935 -1 2987 -1
3085 18 178 35 335 100 479 196 201 136 204 146 213 691 5 354 4 387 -15 476
-57 274 -199 388 -522 419 -168 16 -5042 12 -5102 -4z"/>
<path d="M19415 9894 c-535 -53 -856 -117 -1265 -254 -597 -199 -1108 -482
-1595 -884 -156 -129 -504 -479 -628 -631 -554 -683 -897 -1438 -1041 -2290
-53 -318 -61 -422 -60 -835 0 -416 13 -577 70 -889 148 -814 498 -1552 1052
-2221 123 -149 475 -500 622 -622 600 -496 1237 -820 1957 -997 377 -93 663
-125 1113 -125 360 0 518 11 819 60 1950 314 3475 1729 3965 3682 54 213 106
478 106 537 0 41 4 56 18 64 16 9 17 45 20 493 3 469 0 554 -17 543 -11 -6
-21 19 -21 56 0 44 -58 377 -90 519 -255 1120 -922 2136 -1865 2840 -690 515
-1488 833 -2345 936 -128 15 -712 28 -815 18z m620 -2156 c75 -22 127 -52 168
-97 43 -48 60 -78 81 -151 37 -124 39 -171 37 -975 -2 -741 -1 -792 16 -825
l18 -35 865 -6 c641 -4 877 -8 910 -18 151 -42 249 -139 278 -276 16 -78 26
-517 13 -606 -22 -159 -76 -246 -184 -298 -135 -66 -98 -64 -1012 -67 -456 -1
-846 -6 -865 -11 l-35 -9 -5 -874 c-5 -815 -7 -879 -24 -930 -50 -151 -127
-224 -283 -266 -77 -21 -414 -30 -549 -16 -254 28 -337 97 -387 317 -19 85
-20 133 -24 937 l-5 847 -866 3 c-859 4 -868 4 -946 26 -177 49 -243 126 -282
330 -20 105 -19 468 1 567 37 178 110 266 265 317 64 22 74 22 935 28 479 3
876 9 883 13 9 6 12 179 12 805 0 438 5 840 10 893 25 257 141 370 400 390
155 12 517 3 575 -13z"/>
<path d="M12930 9250 c0 -5 25 -54 55 -109 104 -185 206 -438 256 -633 65
-258 90 -453 98 -778 l6 -255 167 -14 c199 -17 250 -10 325 46 73 54 114 112
192 267 140 280 260 489 541 941 75 121 153 248 174 282 20 34 61 94 91 132
53 69 58 80 56 114 -1 16 -55 17 -981 17 -640 0 -980 -3 -980 -10z"/>
</g>
</svg>
