<?xml version="1.0" standalone="no"?>
<!DOCTYPE svg PUBLIC "-//W3C//DTD SVG 20010904//EN"
 "http://www.w3.org/TR/2001/REC-SVG-20010904/DTD/svg10.dtd">
<svg version="1.0" xmlns="http://www.w3.org/2000/svg"
 width="10246.000000pt" height="8554.000000pt" viewBox="0 0 10246.000000 8554.000000"
 preserveAspectRatio="xMidYMid meet">

<g transform="translate(0.000000,8554.000000) scale(0.100000,-0.100000)"
fill="#000000" stroke="none">
<path d="M59140 85424 c-1136 -611 -3171 -1738 -8825 -4886 -4722 -2629 -5638
-3120 -6135 -3287 -320 -108 -596 -158 -1000 -180 -1008 -57 -4018 -67 -23020
-77 l-13195 -6 -296 -64 c-343 -73 -446 -98 -657 -160 -745 -218 -1363 -564
-1889 -1056 -666 -623 -1081 -1327 -1312 -2228 -70 -273 -104 -474 -120 -700
-7 -96 -10 -1981 -9 -5615 1 -6683 -6 -7547 -62 -7980 -25 -190 -61 -313 -119
-402 -78 -120 -157 -180 -551 -411 -404 -238 -722 -478 -1024 -772 -362 -353
-619 -700 -843 -1138 l-83 -163 0 -5938 0 -5939 40 -663 c63 -1048 166 -2832
355 -6129 488 -8508 1069 -18581 1270 -22025 156 -2662 261 -4496 325 -5660
45 -820 81 -1393 111 -1785 135 -1785 368 -2865 844 -3914 568 -1254 1486
-2362 2641 -3186 584 -417 1272 -779 1952 -1026 l93 -34 43654 0 43653 0 129
49 c944 364 1738 847 2498 1520 162 143 527 508 661 661 397 453 716 901 988
1394 479 864 800 1857 945 2931 53 384 145 1382 231 2490 143 1852 320 4713
505 8145 124 2309 405 7138 1155 19890 l410 6965 0 6174 0 6174 -50 94 c-127
238 -319 514 -513 738 -124 144 -424 438 -557 546 -213 174 -393 298 -700 484
-327 197 -445 282 -569 406 -135 136 -214 277 -230 409 -45 369 -53 1814 -82
16525 l-11 5760 -60 270 c-147 670 -296 1118 -538 1610 -509 1037 -1272 1773
-2339 2254 l-113 51 -18671 0 -18672 -1 -215 -115z m34812 -3114 c316 -89 474
-147 713 -265 528 -260 895 -604 1139 -1067 186 -353 245 -540 280 -888 77
-772 102 -3833 92 -11495 -8 -6822 -24 -9414 -59 -9525 l-14 -45 -1161 -3
-1160 -2 -5 1907 c-4 1905 -7 2034 -42 2478 -39 483 -146 1226 -247 1715 -181
879 -497 1793 -807 2335 -93 163 -239 379 -353 523 -128 161 -438 471 -588
586 -530 409 -1123 659 -1848 780 -318 54 -357 56 -1407 69 -2078 26 -59863 7
-70220 -23 -3412 -10 -5077 -22 -5468 -40 -196 -9 -219 -12 -394 -55 -1507
-367 -2621 -1367 -3234 -2902 -186 -466 -309 -922 -368 -1370 -90 -681 -111
-1449 -111 -4200 l0 -1803 -1163 0 -1164 0 -12 93 c-35 274 -51 1933 -58 6227
-6 3818 1 4670 47 5845 24 595 43 733 141 994 93 248 216 449 369 601 123 122
241 205 415 291 169 83 270 120 548 200 l212 62 7350 8 c4043 5 12398 16
18568 24 l11217 15 313 76 c473 114 611 166 1084 405 785 399 1473 778 8278
4561 3771 2097 6405 3539 6837 3743 102 48 328 119 508 158 92 21 155 27 320
33 434 14 5601 21 18163 22 l13038 2 251 -70z m-5692 -16620 c113 -33 259 -77
325 -100 159 -54 398 -174 514 -257 108 -78 297 -255 381 -358 169 -207 309
-479 403 -785 78 -251 165 -654 192 -888 35 -306 51 -981 60 -2587 3 -533 8
-1124 11 -1312 l6 -343 -38856 0 -38856 0 0 113 c0 61 -7 380 -14 707 -30
1234 -29 1968 4 2990 21 636 37 828 95 1115 125 623 372 1090 697 1319 274
193 656 337 1070 405 117 19 189 20 1408 27 2265 12 22927 19 47990 16 l24365
-4 205 -58z m9394 -10476 c397 -115 628 -213 840 -357 124 -83 314 -275 395
-397 225 -339 374 -830 372 -1228 -1 -322 -62 -1514 -176 -3462 -73 -1249
-1368 -23284 -1595 -27150 -304 -5165 -577 -9855 -675 -11580 -69 -1217 -152
-2406 -186 -2665 -32 -247 -89 -545 -159 -825 -315 -1266 -973 -2332 -1929
-3125 -691 -573 -1499 -958 -2494 -1189 -298 -70 -474 -81 -1512 -96 -3103
-45 -29941 -76 -51939 -60 -15287 11 -24804 33 -26671 60 -1042 15 -1213 26
-1512 96 -954 221 -1744 589 -2393 1114 -324 261 -668 609 -921 930 -746 945
-1211 2169 -1309 3447 -37 482 -128 1949 -225 3603 -151 2582 -343 5826 -850
14370 -516 8703 -603 10160 -790 13345 -487 8285 -730 12627 -736 13185 -3
204 71 548 173 805 102 258 240 469 424 646 297 285 558 411 1180 567 l149 37
3400 6 c1870 3 22633 4 46140 2 l42739 -4 260 -75z"/>
<path d="M47640 42580 c-837 -11 -1133 -28 -1427 -80 -236 -42 -403 -129 -553
-287 -227 -239 -274 -447 -310 -1388 -20 -530 -30 -1521 -36 -3842 l-7 -2383
-2451 0 c-3808 0 -4386 -16 -4738 -126 -178 -56 -317 -143 -447 -279 -173
-183 -261 -386 -281 -648 -46 -631 -81 -4598 -61 -6967 16 -1916 42 -2743 96
-2975 60 -261 276 -533 518 -653 324 -160 653 -175 4147 -187 1908 -6 2783
-18 3029 -40 90 -8 166 -17 170 -20 3 -4 11 -768 17 -1698 27 -3767 49 -5087
90 -5283 36 -177 125 -382 219 -504 99 -129 270 -248 429 -299 285 -92 624
-101 3741 -101 2598 1 5187 14 5680 30 779 25 930 54 1171 226 81 57 168 153
227 251 92 153 180 413 206 608 36 272 52 1443 77 5678 l7 1157 551 0 c1291 0
5095 21 5593 30 736 14 869 25 1033 82 332 117 548 314 670 608 39 94 46 179
60 775 26 1098 34 2413 34 5405 1 3853 0 3898 -86 4154 -113 337 -326 542
-688 659 -58 19 -141 39 -185 46 -268 37 -1086 49 -4367 65 -1434 6 -2610 14
-2613 17 -36 36 -43 480 -50 3214 -6 2330 -17 3456 -35 3693 -25 316 -154 605
-339 759 -230 191 -560 275 -1156 294 -376 13 -7073 20 -7935 9z m5889 -6002
c18 -3519 30 -4331 66 -4608 15 -119 70 -300 123 -405 159 -318 421 -465 947
-530 269 -34 1688 -55 3705 -55 1720 -1 2820 -14 2985 -36 l125 -17 0 -2287 0
-2288 -3102 -5 c-3289 -5 -3760 -11 -3939 -47 -121 -25 -284 -81 -369 -127
-137 -74 -225 -155 -312 -288 -192 -294 -201 -436 -218 -3345 -5 -954 -12
-2267 -16 -2917 l-6 -1183 -2288 0 -2287 0 -6 2573 c-4 1414 -11 2775 -17
3022 -28 1272 -82 1662 -263 1900 -25 33 -87 101 -139 151 -139 134 -223 169
-483 199 -360 41 -1124 52 -4160 60 -1215 3 -2355 8 -2532 11 l-323 6 0 2309
0 2309 2093 0 c2083 0 3641 11 4212 30 535 18 813 67 1050 188 75 39 107 63
195 152 58 58 120 131 139 162 120 206 171 558 201 1393 16 434 29 2334 30
4253 l0 1742 2288 0 2288 0 13 -2322z"/>
</g>
</svg>
