<?xml version="1.0" standalone="no"?>
<!DOCTYPE svg PUBLIC "-//W3C//DTD SVG 20010904//EN"
 "http://www.w3.org/TR/2001/REC-SVG-20010904/DTD/svg10.dtd">
<svg version="1.0" xmlns="http://www.w3.org/2000/svg"
 width="10246.000000pt" height="8554.000000pt" viewBox="0 0 10246.000000 8554.000000"
 preserveAspectRatio="xMidYMid meet">

<g transform="translate(0.000000,8554.000000) scale(0.100000,-0.100000)"
fill="#000000" stroke="none">
<path d="M58030 85439 c-1212 -663 -3347 -1846 -6805 -3772 -6127 -3412 -6919
-3839 -7445 -4016 -320 -108 -596 -158 -1000 -180 -1008 -57 -4018 -67 -23020
-77 l-13195 -6 -296 -64 c-343 -73 -446 -98 -657 -160 -745 -218 -1363 -564
-1889 -1056 -666 -623 -1081 -1327 -1312 -2228 -70 -272 -104 -472 -120 -700
-8 -98 -11 -1905 -10 -5625 2 -6688 -5 -7539 -61 -7970 -25 -190 -61 -313
-119 -402 -78 -120 -157 -180 -551 -411 -605 -357 -1099 -783 -1465 -1266
l-85 -112 2 -10215 3 -10214 263 -4525 c144 -2489 361 -6242 482 -8340 265
-4593 415 -7181 515 -8895 156 -2662 261 -4496 325 -5660 79 -1442 126 -2081
196 -2705 51 -456 136 -981 220 -1365 340 -1538 1053 -2844 2149 -3940 591
-591 1255 -1081 1961 -1446 l171 -89 44988 0 44988 0 161 87 c903 486 1709
1148 2391 1963 202 242 494 654 664 937 558 931 921 1996 1080 3168 53 384
145 1382 231 2490 143 1852 320 4713 505 8145 111 2063 388 6838 955 16494
l210 3570 0 10287 0 10288 -92 113 c-114 139 -405 438 -553 565 -216 187 -442
346 -775 548 -327 197 -445 282 -569 406 -135 136 -214 277 -230 409 -45 369
-53 1814 -82 16525 l-11 5760 -60 270 c-147 670 -296 1118 -538 1610 -378 771
-892 1369 -1570 1827 l-114 78 -19826 0 -19825 0 -185 -101z m35522 -3529
c316 -89 474 -147 713 -265 528 -260 895 -604 1139 -1067 186 -353 245 -540
280 -888 76 -761 102 -3876 92 -11075 -9 -6501 -25 -9037 -59 -9145 l-14 -45
-761 -3 -760 -2 -5 1907 c-4 1905 -7 2034 -42 2478 -39 483 -146 1226 -247
1715 -181 879 -497 1793 -807 2335 -93 163 -239 379 -353 523 -128 161 -438
471 -588 586 -530 409 -1123 659 -1848 780 -318 54 -357 56 -1407 69 -2089 26
-60626 7 -71020 -23 -3412 -10 -5077 -22 -5468 -40 -196 -9 -219 -12 -394 -55
-1507 -367 -2621 -1367 -3234 -2902 -186 -466 -309 -922 -368 -1370 -90 -681
-111 -1449 -111 -4200 l0 -1803 -763 0 -764 0 -12 93 c-34 263 -50 1905 -58
5837 -6 3385 2 4279 47 5435 24 595 43 733 141 994 93 248 216 449 369 601
123 122 241 205 415 291 169 83 270 120 548 200 l212 62 7350 8 c4043 5 12398
16 18568 24 l11217 15 313 76 c473 114 611 166 1084 405 785 399 1473 778
8278 4561 3771 2097 6405 3539 6837 3743 102 48 328 119 508 158 92 21 155 27
320 33 431 14 5563 21 17763 22 l12638 2 251 -70z m-5692 -16620 c113 -33 259
-77 325 -100 159 -54 398 -174 514 -257 108 -78 297 -255 381 -358 169 -207
309 -479 403 -785 78 -251 165 -654 192 -888 34 -297 49 -925 61 -2534 l6
-908 -38451 0 -38451 0 0 106 c0 59 -7 390 -16 738 -28 1084 -3 2525 52 2986
19 161 73 432 118 587 136 472 360 838 628 1027 274 193 656 337 1070 405 117
19 189 20 1408 27 2255 12 22887 19 47590 16 l23965 -4 205 -58z m9394 -10476
c542 -157 803 -290 1052 -539 142 -141 223 -258 318 -456 109 -227 203 -539
213 -704 7 -119 -38 -991 -147 -2865 -63 -1073 -1318 -22428 -1600 -27230
-304 -5165 -577 -9855 -675 -11580 -69 -1217 -152 -2406 -186 -2665 -32 -247
-89 -545 -159 -825 -315 -1266 -973 -2332 -1929 -3125 -691 -573 -1499 -958
-2494 -1189 -299 -70 -470 -81 -1512 -96 -5715 -84 -72090 -84 -77810 0 -1042
15 -1213 26 -1512 96 -954 221 -1744 589 -2393 1114 -324 261 -668 609 -921
930 -746 945 -1211 2169 -1309 3447 -37 482 -128 1949 -225 3603 -151 2582
-343 5826 -850 14370 -516 8703 -603 10160 -790 13345 -405 6883 -588 10110
-690 12132 -27 533 -27 523 15 698 104 434 275 754 536 1006 297 285 558 411
1180 567 l149 37 3400 6 c1870 3 22453 4 45740 2 l42339 -4 260 -75z"/>
<path d="M47240 42980 c-837 -11 -1133 -28 -1427 -80 -236 -42 -403 -129 -553
-287 -227 -239 -274 -447 -310 -1388 -20 -530 -30 -1521 -36 -3842 l-7 -2383
-2451 0 c-3808 0 -4386 -16 -4738 -126 -178 -56 -317 -143 -447 -279 -173
-183 -261 -386 -281 -648 -30 -409 -47 -1537 -61 -3997 -19 -3167 6 -5772 62
-6490 19 -249 63 -396 162 -547 180 -274 402 -413 742 -466 369 -58 1051 -73
3795 -82 1908 -6 2783 -18 3029 -40 90 -8 166 -17 170 -20 3 -4 11 -768 17
-1698 27 -3767 49 -5087 90 -5283 36 -177 125 -382 219 -504 99 -129 270 -248
429 -299 175 -56 387 -75 1001 -91 498 -12 5415 -12 7395 0 2587 16 2685 24
2996 246 81 57 168 153 227 251 92 153 180 413 206 608 36 272 52 1443 77
5678 l7 1157 551 0 c1291 0 5095 21 5593 30 736 14 869 25 1033 82 332 117
548 314 670 608 39 94 46 179 60 775 27 1141 34 2407 35 5805 0 4296 0 4295
-87 4554 -113 337 -326 542 -688 659 -58 19 -141 39 -185 46 -268 37 -1086 49
-4367 65 -1434 6 -2610 14 -2613 17 -36 36 -43 480 -50 3214 -6 2330 -17 3456
-35 3693 -25 316 -154 605 -339 759 -230 191 -560 275 -1156 295 -373 12
-7856 19 -8735 8z m5889 -6802 c18 -3519 30 -4331 66 -4608 15 -119 70 -300
123 -405 159 -318 421 -465 947 -530 269 -34 1688 -55 3705 -55 1720 -1 2820
-14 2985 -36 l125 -17 0 -1887 0 -1888 -3102 -5 c-3289 -5 -3760 -11 -3939
-47 -121 -25 -284 -81 -369 -127 -137 -74 -225 -155 -312 -288 -192 -294 -201
-436 -218 -3345 -5 -954 -12 -2267 -16 -2917 l-6 -1183 -1888 0 -1887 0 -6
2573 c-4 1414 -11 2775 -17 3022 -28 1272 -82 1662 -263 1900 -25 33 -87 101
-139 151 -139 134 -223 169 -483 199 -360 41 -1124 52 -4160 60 -1215 3 -2355
8 -2532 11 l-323 6 0 1909 0 1909 2093 0 c2083 0 3641 11 4212 30 535 18 813
67 1050 188 75 39 107 63 195 152 58 58 120 131 139 162 120 206 171 558 201
1393 16 434 29 2334 30 4253 l0 1742 1888 0 1888 0 13 -2322z"/>
</g>
</svg>
