<?xml version="1.0" standalone="no"?>
<!DOCTYPE svg PUBLIC "-//W3C//DTD SVG 20010904//EN"
 "http://www.w3.org/TR/2001/REC-SVG-20010904/DTD/svg10.dtd">
<svg version="1.0" xmlns="http://www.w3.org/2000/svg"
 width="10246.000000pt" height="8554.000000pt" viewBox="0 0 10246.000000 8554.000000"
 preserveAspectRatio="xMidYMid meet">

<g transform="translate(0.000000,8554.000000) scale(0.100000,-0.100000)"
fill="#000000" stroke="none">
<path d="M55565 85214 c-912 -504 -3226 -1790 -5070 -2817 -6124 -3410 -6919
-3839 -7445 -4016 -320 -108 -596 -158 -1000 -180 -1008 -57 -4018 -67 -23020
-77 l-13195 -6 -296 -64 c-343 -73 -446 -98 -657 -160 -745 -218 -1363 -564
-1889 -1056 -666 -623 -1081 -1327 -1312 -2228 -69 -270 -104 -471 -121 -698
-7 -98 -10 -1855 -9 -5640 0 -5680 -7 -7352 -36 -7697 -32 -387 -65 -540 -144
-662 -78 -120 -157 -180 -551 -411 -270 -159 -551 -355 -745 -519 l-70 -59 -3
-17603 -2 -17603 120 -2082 c187 -3233 333 -5762 415 -7161 156 -2662 261
-4496 325 -5660 45 -820 81 -1393 111 -1785 135 -1785 368 -2865 844 -3914
524 -1157 1342 -2185 2376 -2989 l163 -127 46904 0 46903 0 82 62 c430 327
917 798 1302 1258 202 242 494 654 664 937 558 931 921 1996 1080 3168 53 384
145 1382 231 2490 143 1852 320 4713 505 8145 69 1291 136 2463 320 5635 l115
1980 -2 17620 -3 17620 -100 78 c-140 109 -356 254 -585 392 -326 197 -445
281 -569 406 -135 136 -214 277 -230 409 -45 369 -53 1814 -82 16525 l-11
5760 -60 270 c-148 676 -298 1122 -543 1620 -204 414 -453 786 -726 1087 l-70
78 -21662 0 -21662 0 -590 -326z m37257 -4034 c316 -89 474 -147 713 -265 528
-260 895 -604 1139 -1067 186 -353 245 -540 280 -888 49 -485 72 -1689 87
-4530 17 -3191 -3 -12276 -31 -13710 -10 -534 -14 -563 -68 -568 l-30 -3 -5
1908 c-4 1905 -7 2034 -42 2478 -39 483 -146 1226 -247 1715 -181 879 -497
1793 -807 2335 -93 163 -239 379 -353 523 -128 161 -438 471 -588 586 -530
409 -1123 659 -1848 780 -318 54 -357 56 -1407 69 -2109 26 -62033 7 -72485
-23 -3407 -10 -5073 -22 -5463 -40 -196 -9 -219 -12 -394 -55 -1507 -367
-2621 -1367 -3234 -2902 -186 -466 -309 -922 -368 -1370 -90 -681 -111 -1449
-111 -4200 l0 -1803 -33 0 -34 0 -12 93 c-31 241 -49 1801 -57 5127 -7 2601 2
3573 46 4685 24 595 43 733 141 994 93 248 216 449 369 601 123 122 241 205
415 291 169 83 270 120 548 200 l212 62 7350 8 c4043 5 12398 16 18568 24
l11217 15 313 76 c473 114 611 166 1084 405 785 399 1473 778 8278 4561 3771
2097 6405 3539 6837 3743 102 48 328 119 508 158 92 21 155 27 320 33 425 14
5494 21 17033 22 l11908 2 251 -70z m-5692 -16620 c300 -86 427 -132 595 -215
183 -91 303 -175 453 -320 132 -127 204 -211 292 -345 190 -289 316 -645 424
-1198 43 -219 62 -374 76 -627 11 -209 30 -1104 30 -1447 l0 -218 -37715 0
-37715 0 0 93 c0 50 -5 306 -11 567 -15 610 5 1347 47 1705 19 164 72 434 118
592 136 472 360 838 628 1027 274 193 656 337 1070 405 117 19 189 20 1408 27
2235 12 22809 19 46860 16 l23235 -4 205 -58z m9394 -10476 c397 -115 628
-213 840 -357 127 -86 315 -275 399 -403 140 -212 287 -574 287 -709 0 -108
-12 -320 -870 -14910 -1123 -19105 -1359 -23132 -1495 -25535 -69 -1217 -152
-2406 -186 -2665 -32 -247 -89 -545 -159 -825 -315 -1266 -973 -2332 -1929
-3125 -691 -573 -1499 -958 -2494 -1189 -299 -70 -470 -81 -1512 -96 -5674
-83 -70672 -83 -76350 0 -1042 15 -1213 26 -1512 96 -954 221 -1744 589 -2393
1114 -324 261 -668 609 -921 930 -746 945 -1211 2169 -1309 3447 -37 482 -128
1949 -225 3603 -151 2582 -343 5826 -850 14370 -516 8703 -603 10160 -790
13345 -334 5670 -504 8630 -620 10789 l-36 659 26 89 c53 184 159 417 257 561
131 195 339 395 539 520 211 131 437 215 875 325 l149 37 3400 6 c1870 3
22124 4 45010 2 l41610 -4 259 -75z"/>
<path d="M46510 43710 c-837 -11 -1133 -28 -1427 -80 -236 -42 -403 -129 -553
-287 -227 -239 -274 -447 -310 -1388 -20 -530 -30 -1521 -36 -3842 l-7 -2383
-2451 0 c-3808 0 -4386 -16 -4738 -126 -178 -56 -317 -143 -447 -279 -173
-183 -261 -386 -281 -648 -71 -975 -97 -8934 -35 -11052 28 -977 40 -1106 118
-1291 118 -280 356 -496 637 -577 328 -95 855 -111 3980 -122 1908 -6 2783
-18 3029 -40 90 -8 166 -17 170 -20 3 -4 11 -768 17 -1698 27 -3767 49 -5087
90 -5283 36 -177 125 -382 219 -504 99 -129 270 -248 429 -299 175 -56 387
-75 1001 -91 501 -12 6860 -13 8855 0 2587 16 2685 24 2996 246 81 57 168 153
227 251 92 153 180 413 206 608 36 272 52 1443 77 5678 l7 1157 551 0 c1291 0
5095 21 5593 30 736 14 869 25 1033 82 332 117 548 314 670 608 39 94 46 179
60 775 28 1203 35 2403 35 6540 0 5102 1 5015 -87 5279 -113 337 -326 542
-688 659 -58 19 -141 39 -185 46 -268 37 -1086 49 -4367 65 -1434 6 -2610 14
-2613 17 -36 36 -43 480 -50 3214 -6 2330 -17 3456 -35 3693 -25 316 -154 605
-339 759 -230 190 -559 274 -1156 295 -369 12 -9291 19 -10195 8z m5889 -8262
c18 -3519 30 -4331 66 -4608 15 -119 70 -300 123 -405 159 -318 421 -465 947
-530 269 -34 1688 -55 3705 -55 1720 -1 2820 -14 2985 -36 l125 -17 0 -1157 0
-1158 -3102 -5 c-3289 -5 -3760 -11 -3939 -47 -121 -25 -284 -81 -369 -127
-137 -74 -225 -155 -312 -288 -192 -294 -201 -436 -218 -3345 -5 -954 -12
-2267 -16 -2917 l-6 -1183 -1158 0 -1157 0 -6 2573 c-4 1414 -11 2775 -17
3022 -28 1272 -82 1662 -263 1900 -25 33 -87 101 -139 151 -139 134 -223 169
-483 199 -360 41 -1124 52 -4160 60 -1215 3 -2355 8 -2532 11 l-323 6 0 1179
0 1179 2093 0 c2083 0 3641 11 4212 30 535 18 813 67 1050 188 75 39 107 63
195 152 58 58 120 131 139 162 120 206 171 558 201 1393 16 434 29 2334 30
4253 l0 1742 1158 0 1158 0 13 -2322z"/>
</g>
</svg>
