<?xml version="1.0" standalone="no"?>
<!DOCTYPE svg PUBLIC "-//W3C//DTD SVG 20010904//EN"
 "http://www.w3.org/TR/2001/REC-SVG-20010904/DTD/svg10.dtd">
<svg version="1.0" xmlns="http://www.w3.org/2000/svg"
 width="2459.000000pt" height="2053.000000pt" viewBox="0 0 2459.000000 2053.000000"
 preserveAspectRatio="xMidYMid meet">

<g transform="translate(0.000000,2053.000000) scale(0.100000,-0.100000)"
fill="#000000" stroke="none">
<path d="M16645 20500 l-1950 -5 -82 -23 c-46 -12 -110 -33 -144 -47 -68 -29
-516 -275 -1804 -992 -1777 -990 -1832 -1019 -1985 -1056 -160 -40 -83 -39
-4540 -42 l-4325 -2 -102 -22 c-268 -56 -463 -160 -629 -334 -143 -150 -230
-319 -277 -537 -18 -82 -21 -127 -20 -325 5 -1041 2 -2846 -5 -2955 -13 -192
-22 -210 -143 -279 -391 -221 -581 -538 -608 -1017 -9 -151 -5 -235 43 -954
42 -619 70 -1077 131 -2135 112 -1956 271 -4716 335 -5815 39 -663 77 -1329
85 -1480 26 -481 46 -677 91 -898 80 -391 265 -728 550 -1002 313 -300 704
-482 1189 -552 73 -11 1891 -13 9860 -13 9343 0 9775 1 9885 18 478 74 867
269 1176 589 298 308 473 693 524 1148 48 443 105 1283 175 2595 19 363 121
2109 225 3880 283 4802 270 4570 259 4722 -20 264 -112 481 -280 658 -85 89
-156 145 -282 219 -103 61 -147 102 -174 161 -17 38 -18 166 -23 2710 l-6
2670 -22 100 c-125 547 -442 865 -984 987 -91 21 -125 21 -1348 28 -1354 8
-1817 8 -4795 0z m6070 -607 c204 -58 352 -170 427 -323 71 -145 69 -131 80
-790 10 -669 5 -4703 -7 -4737 l-7 -23 -424 0 -424 0 2 473 c2 485 -2 573 -42
837 -34 226 -89 424 -167 606 -148 342 -418 534 -807 574 -92 10 -2082 11
-9115 7 -8110 -5 -9003 -7 -9071 -21 -403 -85 -694 -352 -839 -769 -79 -226
-91 -377 -91 -1134 l0 -573 -424 0 -423 0 -6 48 c-11 88 -18 2373 -9 2832 8
366 13 466 25 512 50 177 134 259 314 311 l78 22 4455 5 4455 6 85 21 c187 47
33 -36 2329 1241 894 497 1516 836 1562 853 43 16 107 33 141 38 37 5 1666 8
3943 7 l3880 -1 80 -22z m-1363 -3990 c109 -31 174 -67 238 -132 85 -86 131
-194 166 -391 15 -81 18 -187 21 -722 l5 -628 -9470 0 -9470 0 -7 297 c-9 357
-1 997 15 1108 23 169 80 301 160 368 68 57 180 100 302 116 35 5 4091 8 9013
7 l8950 -1 77 -22z m2243 -2511 c210 -59 303 -150 356 -349 32 -118 28 -314
-25 -1218 -75 -1282 -206 -3502 -360 -6130 -80 -1353 -161 -2746 -181 -3095
-19 -349 -42 -684 -51 -743 -51 -360 -194 -652 -431 -878 -187 -177 -401 -287
-685 -351 -93 -21 -100 -22 -2528 -28 -3136 -9 -11641 -9 -14785 0 -2433 6
-2440 7 -2533 28 -297 67 -516 183 -707 376 -229 229 -370 532 -415 886 -6 47
-40 587 -75 1200 -36 613 -133 2247 -215 3630 -299 5031 -356 6045 -345 6170
14 173 63 297 150 379 79 75 156 109 330 145 11 2 5060 3 11220 2 l11200 -1
80 -23z"/>
<path d="M11370 10070 c-74 -4 -146 -13 -176 -24 -64 -21 -118 -73 -139 -135
-27 -76 -34 -306 -35 -1048 l0 -703 -752 0 c-855 -1 -934 -5 -1017 -47 -66
-34 -114 -97 -130 -173 -15 -70 -25 -1307 -14 -1755 9 -344 10 -362 32 -413
26 -57 72 -104 126 -126 74 -31 190 -36 898 -37 392 -1 744 -4 782 -8 l70 -6
6 -810 c4 -529 10 -828 17 -862 20 -94 60 -152 128 -186 71 -36 139 -38 1149
-35 1079 4 1045 2 1134 61 48 32 85 105 102 197 8 44 13 323 16 857 l5 792
832 3 c752 3 836 5 882 21 93 31 147 82 176 166 17 50 24 2037 8 2126 -22 117
-83 182 -197 213 -49 13 -179 16 -879 19 l-822 4 -6 31 c-3 17 -6 385 -6 819
0 545 -3 804 -11 841 -31 146 -103 200 -287 218 -111 10 -1694 11 -1892 0z
m1623 -1407 c3 -692 6 -827 19 -876 35 -133 104 -181 279 -197 57 -5 419 -10
804 -10 385 0 724 -3 753 -6 l52 -7 0 -693 0 -694 -814 0 c-508 0 -833 -4
-867 -10 -79 -15 -137 -47 -166 -91 -56 -85 -56 -83 -60 -976 l-4 -823 -695 0
-694 0 0 708 c-1 951 -7 1036 -87 1115 -74 75 -29 71 -970 75 l-843 3 0 699 0
700 748 0 c411 0 789 5 840 10 119 11 181 32 225 77 80 80 86 154 87 1101 l0
712 694 0 694 0 5 -817z"/>
</g>
</svg>
