<?xml version="1.0" standalone="no"?>
<!DOCTYPE svg PUBLIC "-//W3C//DTD SVG 20010904//EN"
 "http://www.w3.org/TR/2001/REC-SVG-20010904/DTD/svg10.dtd">
<svg version="1.0" xmlns="http://www.w3.org/2000/svg"
 width="2334.000000pt" height="2349.000000pt" viewBox="0 0 2334.000000 2349.000000"
 preserveAspectRatio="xMidYMid meet">

<g transform="translate(0.000000,2349.000000) scale(0.100000,-0.100000)"
fill="#000000" stroke="none">
<path d="M5390 23269 c-1766 -96 -3359 -1010 -4323 -2480 -440 -671 -731
-1443 -846 -2249 -59 -409 -55 21 -58 -5790 -3 -5557 4 -7285 31 -7535 109
-996 479 -1948 1064 -2739 672 -909 1585 -1570 2667 -1931 427 -143 811 -223
1300 -272 171 -17 490 -18 6445 -18 6643 0 6333 -2 6705 45 821 104 1633 404
2324 857 323 212 586 426 872 712 287 288 494 541 705 861 459 698 759 1508
864 2335 47 372 45 61 45 6715 0 5972 -1 6284 -18 6455 -75 751 -251 1374
-565 2001 -267 533 -571 959 -992 1388 -628 640 -1347 1089 -2196 1371 -401
134 -779 211 -1304 267 -89 9 -1522 12 -6345 14 -3426 0 -6295 -2 -6375 -7z
m12710 -1541 c554 -78 974 -204 1423 -429 198 -100 323 -180 607 -387 119 -87
253 -208 406 -363 624 -639 1000 -1455 1106 -2404 19 -178 19 -12582 0 -12760
-44 -393 -131 -755 -263 -1090 -499 -1273 -1583 -2167 -2964 -2444 -152 -30
-320 -50 -530 -62 -130 -7 -2148 -9 -6340 -7 -5823 3 -6157 4 -6285 21 -537
71 -937 187 -1365 396 -1131 555 -1921 1616 -2140 2876 -30 174 -43 281 -55
460 -14 196 -13 12270 0 12465 45 637 219 1228 518 1755 81 143 247 387 358
525 139 173 412 446 584 584 657 525 1419 817 2290 879 25 2 2855 3 6290 2
5687 -1 6255 -2 6360 -17z"/>
<path d="M11499 19421 c-416 -115 -666 -526 -563 -924 21 -83 82 -210 133
-277 23 -30 93 -109 156 -176 63 -67 115 -125 115 -128 0 -3 -642 -6 -1427 -6
-1502 -1 -1960 -8 -2158 -35 -755 -101 -1457 -458 -2000 -1016 -843 -867
-1165 -2037 -885 -3214 234 -985 907 -1829 1817 -2280 362 -179 732 -288 1158
-342 130 -16 373 -18 3420 -23 3266 -6 3280 -6 3390 -27 401 -76 718 -224 997
-468 279 -242 496 -607 583 -980 61 -261 61 -629 0 -890 -60 -257 -186 -522
-351 -736 -305 -397 -814 -674 -1339 -728 -53 -6 -1310 -11 -3035 -13 l-2945
-3 -48 24 c-60 30 -88 66 -170 223 -215 412 -464 701 -792 920 -119 79 -342
188 -485 236 -692 235 -1418 150 -2010 -235 -196 -128 -410 -319 -547 -488
-216 -268 -384 -612 -452 -925 -52 -245 -67 -569 -36 -807 134 -1018 904
-1814 1920 -1984 816 -136 1674 214 2170 885 105 144 149 215 224 365 69 136
123 204 191 235 l45 21 2415 -3 c2728 -3 3620 5 3850 36 387 54 698 149 1045
321 212 106 348 189 530 326 692 519 1169 1273 1339 2118 45 224 60 383 60
642 1 320 -29 557 -109 860 -205 784 -658 1458 -1297 1931 -410 303 -902 516
-1423 613 -307 58 -69 54 -3615 61 -2410 5 -3277 10 -3340 18 -363 51 -651
154 -897 324 -558 384 -885 1048 -833 1692 49 617 359 1159 850 1488 246 164
520 265 835 308 179 24 3316 22 3341 -2 3 -4 -45 -63 -108 -130 -175 -187
-215 -246 -264 -392 -54 -159 -51 -335 9 -495 82 -218 261 -388 492 -468 72
-24 94 -27 215 -28 115 0 146 4 210 23 105 33 175 71 266 143 103 82 1581
1560 1663 1663 118 149 172 294 172 466 0 150 -35 269 -118 394 -67 100 -674
721 -1368 1400 -390 381 -440 420 -590 472 -106 37 -302 44 -406 15z m-5026
-12277 c280 -63 511 -289 577 -567 85 -354 -84 -719 -405 -877 -106 -52 -178
-70 -305 -77 -387 -21 -714 234 -797 621 -18 86 -12 261 12 351 23 87 87 211
145 282 101 125 253 222 410 263 96 24 263 26 363 4z"/>
<path d="M16865 19433 c-446 -39 -889 -217 -1250 -503 -44 -35 -128 -111 -186
-169 -855 -856 -905 -2200 -115 -3118 362 -420 843 -686 1411 -779 151 -25
494 -26 650 -1 508 81 940 300 1300 661 844 846 902 2170 137 3087 -440 526
-1107 836 -1781 827 -69 -1 -144 -3 -166 -5z m410 -1553 c250 -79 438 -268
517 -520 20 -65 23 -95 22 -225 0 -135 -3 -158 -27 -230 -107 -321 -400 -535
-733 -535 -374 0 -686 254 -760 619 -23 118 -15 277 20 386 83 259 302 459
571 521 91 21 301 12 390 -16z"/>
</g>
</svg>
