<?xml version="1.0" standalone="no"?>
<!DOCTYPE svg PUBLIC "-//W3C//DTD SVG 20010904//EN"
 "http://www.w3.org/TR/2001/REC-SVG-20010904/DTD/svg10.dtd">
<svg version="1.0" xmlns="http://www.w3.org/2000/svg"
 width="2204.000000pt" height="2354.000000pt" viewBox="0 0 2204.000000 2354.000000"
 preserveAspectRatio="xMidYMid meet">

<g transform="translate(0.000000,2354.000000) scale(0.100000,-0.100000)"
fill="#000000" stroke="none">
<path d="M11588 23287 c-200 -85 -270 -264 -252 -648 l6 -146 -413 -6 c-689
-11 -1198 -53 -1769 -148 -2205 -365 -4317 -1462 -5880 -3056 -2213 -2254
-3323 -5351 -3045 -8488 207 -2326 1207 -4587 2790 -6305 266 -289 737 -740
908 -869 85 -64 209 -124 313 -152 114 -32 299 -32 409 0 309 87 520 314 590
634 27 121 18 286 -22 399 -60 172 -158 299 -403 522 -1038 942 -1819 2056
-2337 3336 -827 2039 -883 4271 -157 6302 706 1974 1817 3485 3339 4539 539
374 1189 713 1859 971 670 258 1462 464 2256 587 367 56 605 74 1190 86 151 3
296 8 322 11 l47 6 -1 -239 c-1 -253 4 -296 47 -388 36 -75 94 -136 167 -176
60 -32 68 -34 163 -34 89 0 106 3 155 28 86 43 808 564 1460 1055 364 274 368
277 414 347 104 157 83 340 -53 475 -60 60 -730 565 -1236 931 -599 435 -608
440 -735 446 -62 3 -85 0 -132 -20z"/>
<path d="M17270 20066 c-184 -41 -363 -137 -472 -254 -204 -218 -277 -545
-183 -815 54 -153 133 -254 417 -527 443 -428 716 -723 1036 -1124 1003 -1254
1621 -2656 1841 -4176 134 -925 117 -1968 -49 -2956 -366 -2177 -1452 -4073
-3117 -5446 -849 -699 -1863 -1257 -2943 -1618 -1025 -343 -1871 -480 -2967
-480 l-331 0 -4 248 c-4 219 -7 253 -25 303 -44 118 -130 212 -231 249 -79 30
-194 25 -272 -11 -125 -58 -1754 -1259 -1839 -1355 -22 -26 -53 -72 -68 -103
-25 -49 -28 -68 -28 -151 0 -82 4 -103 27 -152 15 -32 48 -81 75 -109 89 -96
1682 -1272 1811 -1338 68 -35 158 -54 218 -46 114 14 223 95 279 205 44 87 55
164 55 398 l0 212 133 0 c72 0 191 4 262 10 72 5 292 19 490 30 709 40 989 67
1365 130 1029 172 2009 492 2960 967 2065 1029 3760 2725 4799 4800 619 1238
993 2585 1101 3963 43 552 41 1221 -6 1780 -139 1684 -661 3253 -1557 4680
-329 525 -688 1004 -1070 1430 -176 196 -1044 1059 -1133 1126 -81 61 -177
108 -267 129 -74 17 -230 18 -307 1z"/>
<path d="M10870 17477 c-45 -13 -837 -450 -3187 -1762 -911 -508 -1233 -692
-1233 -705 0 -10 15 -29 33 -42 17 -14 509 -292 1092 -618 1294 -724 1938
-1085 2670 -1498 308 -174 576 -322 595 -329 50 -17 102 -16 157 5 27 10 401
217 833 459 432 242 1381 775 2110 1183 729 408 1355 762 1393 787 37 25 66
50 64 57 -2 6 -219 132 -483 279 -3479 1949 -3907 2187 -3957 2192 -23 3 -62
-1 -87 -8z m215 -978 c81 -30 156 -104 202 -197 37 -73 38 -80 38 -181 0 -96
-3 -111 -28 -163 -35 -71 -112 -157 -186 -207 -57 -39 -756 -433 -1556 -878
-321 -178 -491 -267 -592 -308 l-142 -57 -88 63 c-207 147 -243 196 -243 328
0 116 63 351 103 389 32 30 2013 1144 2113 1188 126 56 269 64 379 23z"/>
<path d="M15760 14227 c-41 -22 -673 -375 -1405 -785 -731 -409 -1676 -936
-2099 -1170 -848 -470 -851 -473 -897 -589 l-23 -58 -1 -2687 c0 -1950 3
-2688 11 -2688 28 0 91 30 244 116 91 50 597 332 1125 627 2073 1154 2993
1673 3031 1709 38 36 80 118 96 190 16 69 19 5351 3 5367 -6 6 -36 -5 -85 -32z"/>
<path d="M6000 14240 c-13 -8 -16 -325 -23 -2695 l-9 -2686 27 -55 c15 -31 44
-68 68 -88 23 -18 249 -150 502 -291 253 -142 1074 -603 1825 -1025 1863
-1047 2090 -1173 2098 -1165 12 12 14 5402 1 5447 -18 68 -83 125 -241 215
-79 44 -471 264 -873 488 -401 225 -1281 717 -1955 1095 -1496 838 -1388 781
-1420 760z m1382 -1692 c115 -53 198 -163 230 -303 10 -49 13 -322 13 -1430 0
-1523 4 -1424 -67 -1556 -78 -148 -251 -230 -424 -201 -160 27 -259 119 -320
302 -18 52 -19 121 -22 1432 -3 1495 -4 1451 52 1573 30 66 96 140 151 167 77
40 116 48 225 45 88 -3 114 -8 162 -29z"/>
</g>
</svg>
