<?xml version="1.0" standalone="no"?>
<!DOCTYPE svg PUBLIC "-//W3C//DTD SVG 20010904//EN"
 "http://www.w3.org/TR/2001/REC-SVG-20010904/DTD/svg10.dtd">
<svg version="1.0" xmlns="http://www.w3.org/2000/svg"
 width="2458.000000pt" height="2455.000000pt" viewBox="0 0 2458.000000 2455.000000"
 preserveAspectRatio="xMidYMid meet">

<g transform="translate(0.000000,2455.000000) scale(0.100000,-0.100000)"
fill="#000000" stroke="none">
<path d="M9525 24444 c-33 -2 -141 -8 -240 -14 -1317 -79 -2602 -440 -3780
-1063 -1457 -770 -2580 -1706 -3458 -2882 -916 -1226 -1523 -2689 -1812 -4368
-335 -1947 -86 -3826 750 -5672 1093 -2414 2943 -4160 5476 -5168 867 -345
1736 -545 2703 -623 271 -21 851 -29 1136 -15 1348 67 2534 356 3720 906 196
90 430 212 705 364 226 126 313 165 405 182 89 16 170 -5 265 -68 52 -35 658
-633 2420 -2393 2622 -2617 2713 -2707 2875 -2841 316 -262 593 -443 833 -544
110 -45 586 -205 616 -205 9 0 25 -7 35 -15 29 -22 578 -22 620 0 15 8 39 15
52 15 34 0 197 54 321 106 409 171 777 473 1022 839 130 194 295 564 308 692
3 29 9 53 13 53 23 0 30 79 29 339 -1 274 -5 323 -24 321 -5 0 -13 35 -16 77
-10 132 -119 430 -241 662 -148 282 -343 556 -612 861 -55 63 -1174 1185
-2485 2495 -1311 1309 -2440 2441 -2508 2515 -182 198 -221 287 -189 437 18
87 59 177 196 428 736 1351 1115 2608 1231 4080 17 221 23 829 10 1085 -106
2141 -810 4027 -2106 5645 -768 959 -1721 1798 -2720 2394 -1347 806 -2785
1240 -4505 1361 -145 11 -931 21 -1045 14z m860 -2574 c1215 -65 2342 -408
3374 -1027 1910 -1146 3199 -3088 3505 -5278 53 -378 61 -507 61 -1005 0 -474
-5 -569 -46 -910 -269 -2241 -1576 -4245 -3530 -5413 -976 -583 -2056 -920
-3234 -1008 -206 -16 -794 -16 -1000 0 -1298 97 -2470 491 -3531 1186 -699
458 -1350 1068 -1851 1736 -1243 1656 -1722 3739 -1328 5784 234 1215 786
2372 1586 3322 543 644 1204 1201 1934 1629 623 364 1350 650 2073 813 634
144 1347 205 1987 171z"/>
<path d="M9325 20479 c-740 -45 -1220 -133 -1798 -329 -487 -165 -669 -258
-825 -426 -499 -533 -263 -1450 423 -1649 233 -67 502 -36 945 112 124 41 294
92 378 114 1453 373 3015 -21 4114 -1038 368 -340 608 -672 1003 -1388 144
-262 191 -335 271 -424 107 -119 302 -236 470 -283 67 -18 105 -22 249 -22
157 0 177 2 259 27 232 72 416 196 546 369 211 280 264 625 147 963 -36 104
-97 237 -208 455 -500 987 -1252 1825 -2194 2446 -884 582 -1891 941 -2940
1048 -322 33 -583 41 -840 25z"/>
</g>
</svg>
