<?xml version="1.0" standalone="no"?>
<!DOCTYPE svg PUBLIC "-//W3C//DTD SVG 20010904//EN"
 "http://www.w3.org/TR/2001/REC-SVG-20010904/DTD/svg10.dtd">
<svg version="1.0" xmlns="http://www.w3.org/2000/svg"
 width="2489.000000pt" height="2485.000000pt" viewBox="0 0 2489.000000 2485.000000"
 preserveAspectRatio="xMidYMid meet">

<g transform="translate(0.000000,2485.000000) scale(0.100000,-0.100000)"
fill="#000000" stroke="none">
<path d="M6135 24800 c-2522 -7 -2347 -3 -2690 -61 -1487 -251 -2707 -1292
-3180 -2714 -88 -264 -148 -532 -191 -851 -28 -210 -38 -4578 -26 -11454 11
-6519 5 -5988 68 -6335 89 -497 296 -1036 561 -1460 626 -1002 1638 -1670
2817 -1860 54 -9 157 -23 230 -32 121 -16 786 -17 8586 -20 5972 -3 8509 -1
8639 7 904 53 1713 363 2403 922 149 120 459 432 580 583 493 615 773 1288
884 2120 41 307 41 17202 0 17525 -73 582 -246 1113 -512 1576 -603 1053
-1626 1773 -2824 1988 -351 62 -172 58 -2865 66 -2796 8 -9033 8 -12480 0z
m14711 -1770 c632 -50 1163 -279 1554 -670 362 -361 564 -796 657 -1410 16
-108 18 -590 21 -8435 2 -6146 0 -8362 -8 -8480 -40 -558 -211 -1029 -510
-1405 -83 -105 -279 -295 -380 -371 -214 -160 -480 -292 -743 -369 -219 -63
-410 -94 -677 -110 -131 -8 -2601 -10 -8450 -8 -7753 4 -8273 5 -8389 21 -259
36 -509 99 -691 174 -528 217 -915 575 -1155 1068 -142 292 -224 602 -255 965
-14 161 -13 16663 0 16820 32 361 112 661 254 955 313 644 879 1064 1632 1209
111 21 191 31 384 49 97 10 16639 6 16756 -3z"/>
<path d="M20738 16819 c-97 -10 -212 -48 -308 -102 -99 -56 -255 -211 -329
-327 -29 -47 -274 -467 -543 -935 -817 -1417 -2072 -3585 -2129 -3677 -62
-100 -73 -105 -140 -56 -24 17 -250 198 -504 403 -1160 936 -1162 937 -1355
1013 -126 50 -216 65 -348 60 -97 -4 -131 -10 -198 -35 -192 -70 -366 -214
-512 -426 -27 -40 -577 -911 -1222 -1937 -1222 -1943 -1322 -2100 -1343 -2100
-6 0 -151 124 -322 277 -878 782 -2018 1795 -2075 1842 -144 120 -308 211
-456 253 -62 17 -105 22 -199 22 -109 0 -129 -3 -215 -33 -148 -50 -266 -124
-403 -251 -33 -30 -243 -266 -466 -525 -843 -976 -2526 -2924 -3055 -3535
-768 -886 -1461 -1694 -1514 -1765 -60 -80 -135 -240 -163 -345 -19 -70 -23
-110 -22 -225 0 -122 4 -151 27 -228 78 -259 245 -450 487 -554 360 -156 715
-82 1010 209 46 46 318 353 604 683 1467 1692 3646 4196 3754 4313 52 56 102
102 111 102 8 0 67 -46 130 -103 253 -226 1589 -1415 1965 -1747 220 -194 444
-386 499 -427 120 -90 272 -165 386 -193 102 -24 253 -26 352 -6 128 28 278
112 398 223 131 121 24 -45 1725 2668 455 726 875 1395 933 1488 57 92 110
167 116 167 13 0 146 -106 786 -625 636 -516 921 -740 1006 -791 402 -238 860
-155 1137 208 68 89 780 1311 2589 4443 852 1475 791 1363 824 1522 21 101 14
268 -16 373 -46 165 -158 352 -271 455 -185 167 -464 253 -731 224z"/>
</g>
</svg>
