<?xml version="1.0" standalone="no"?>
<!DOCTYPE svg PUBLIC "-//W3C//DTD SVG 20010904//EN"
 "http://www.w3.org/TR/2001/REC-SVG-20010904/DTD/svg10.dtd">
<svg version="1.0" xmlns="http://www.w3.org/2000/svg"
 width="2475.000000pt" height="2471.000000pt" viewBox="0 0 2475.000000 2471.000000"
 preserveAspectRatio="xMidYMid meet">

<g transform="translate(0.000000,2471.000000) scale(0.100000,-0.100000)"
fill="#000000" stroke="none">
<path d="M7960 24613 c-360 -29 -691 -211 -889 -490 -147 -207 -224 -435 -236
-702 -3 -64 -8 -145 -11 -180 l-6 -64 -391 6 c-434 8 -608 0 -937 -39 -531
-63 -799 -139 -1130 -319 -770 -419 -1219 -1082 -1335 -1968 -8 -65 -19 -205
-25 -310 -6 -120 -11 -3543 -12 -9147 -3 -7385 -1 -8973 10 -9055 110 -829
484 -1430 1177 -1887 236 -156 369 -212 959 -398 l159 -50 7059 0 7058 0 103
29 c56 17 167 48 247 71 185 53 291 94 465 184 177 92 296 165 449 279 134
100 353 309 453 432 262 324 447 734 524 1165 54 299 50 8 59 4485 13 7469 14
14007 1 14130 -66 618 -313 1157 -726 1584 -411 424 -923 678 -1525 755 -174
23 -1008 56 -1381 56 l-186 0 -6 168 c-8 204 -27 324 -73 462 -140 418 -459
692 -917 787 -76 16 -390 17 -4487 18 -2423 1 -4425 0 -4450 -2z m8470 -2163
l0 -710 -4075 0 -4075 0 0 710 0 710 4075 0 4075 0 0 -710z m1905 -700 c771
-20 1099 -53 1290 -129 266 -107 492 -361 595 -669 16 -48 37 -123 47 -167 17
-77 18 -385 14 -8550 -2 -4659 -7 -8747 -11 -9085 -7 -567 -10 -623 -29 -714
-39 -186 -109 -360 -204 -501 -60 -91 -220 -242 -313 -298 -150 -89 -330 -154
-488 -176 -108 -15 -13652 -15 -13763 0 -277 37 -518 147 -695 317 -225 217
-346 509 -364 885 -3 67 -1 4123 5 9012 11 9372 9 8939 51 9130 105 481 425
794 913 895 171 35 276 40 851 40 l564 0 6 -27 c3 -16 18 -109 32 -208 41
-296 69 -406 139 -550 99 -203 276 -390 475 -498 93 -51 230 -102 346 -129
l99 -23 4360 -3 c3172 -2 4391 0 4475 8 428 42 735 201 920 478 123 183 206
448 225 717 3 50 11 127 16 173 10 74 13 82 33 82 11 0 197 -5 411 -10z"/>
<path d="M9955 17893 c-105 -15 -220 -59 -312 -120 -66 -44 -539 -505 -1079
-1053 -256 -260 -429 -445 -533 -570 -84 -102 -159 -186 -166 -188 -7 -2 -73
70 -146 160 -267 328 -373 415 -579 479 -106 33 -264 33 -370 0 -129 -40 -206
-86 -305 -186 -98 -98 -144 -167 -180 -272 -79 -229 -42 -455 110 -663 57 -78
944 -967 1031 -1032 145 -111 282 -162 434 -162 52 0 120 5 150 13 99 23 229
94 311 168 145 130 1114 1091 1699 1686 633 642 653 665 704 818 117 351 -91
759 -452 885 -105 36 -222 50 -317 37z"/>
<path d="M12585 16440 c-216 -21 -365 -88 -506 -229 -146 -146 -205 -301 -196
-516 14 -352 254 -604 634 -670 78 -13 398 -15 2683 -13 l2595 3 80 22 c366
103 581 383 562 733 -17 325 -242 571 -597 656 -71 17 -208 18 -2625 20 -1402
1 -2586 -2 -2630 -6z"/>
<path d="M9895 12704 c-85 -21 -206 -83 -310 -161 -62 -47 -344 -321 -917
-895 -455 -455 -831 -828 -836 -828 -11 0 -56 50 -132 145 -251 315 -386 424
-585 471 -96 22 -274 15 -365 -16 -247 -84 -423 -272 -489 -525 -48 -182 -1
-408 117 -564 119 -157 878 -916 1070 -1070 76 -61 184 -115 272 -135 76 -18
207 -21 282 -5 76 15 224 89 288 144 94 80 1372 1348 1870 1856 498 508 518
532 568 671 23 63 26 89 26 193 0 136 -15 207 -69 320 -95 198 -281 352 -485
399 -80 19 -225 19 -305 0z"/>
<path d="M12535 11626 c-306 -48 -540 -229 -621 -480 -35 -108 -44 -271 -20
-379 59 -265 253 -452 553 -535 l98 -27 2550 -3 c1821 -2 2581 0 2660 8 190
19 332 81 455 197 87 81 136 155 176 263 60 158 67 312 23 458 -34 109 -84
189 -179 283 -71 71 -103 94 -181 133 -51 25 -130 56 -174 69 l-80 22 -2590 2
c-2037 1 -2607 -2 -2670 -11z"/>
<path d="M9939 7910 c-152 -24 -270 -87 -421 -224 -57 -52 -387 -379 -734
-727 -534 -537 -650 -660 -763 -801 -73 -93 -138 -168 -145 -168 -7 0 -61 57
-122 128 -152 177 -308 336 -381 388 -297 213 -684 174 -934 -94 -107 -115
-165 -235 -190 -392 -26 -172 28 -368 145 -519 119 -151 899 -930 1046 -1042
77 -59 182 -112 265 -133 70 -19 245 -21 313 -5 82 20 204 84 286 149 107 85
2238 2216 2305 2305 101 135 144 259 145 420 1 122 -13 183 -69 300 -75 158
-190 275 -340 346 -134 64 -280 89 -406 69z"/>
<path d="M12560 6823 c-147 -23 -268 -65 -365 -127 -205 -131 -315 -338 -315
-588 0 -190 62 -341 193 -473 108 -109 210 -167 372 -211 98 -27 1059 -36
3320 -30 2204 5 2065 1 2233 62 213 77 382 264 438 484 22 87 22 253 0 345
-48 197 -177 361 -356 449 -52 25 -131 56 -175 69 l-80 22 -2620 1 c-1441 1
-2631 0 -2645 -3z"/>
</g>
</svg>
