<?xml version="1.0" standalone="no"?>
<!DOCTYPE svg PUBLIC "-//W3C//DTD SVG 20010904//EN"
 "http://www.w3.org/TR/2001/REC-SVG-20010904/DTD/svg10.dtd">
<svg version="1.0" xmlns="http://www.w3.org/2000/svg"
 width="2261.000000pt" height="2464.000000pt" viewBox="0 0 2261.000000 2464.000000"
 preserveAspectRatio="xMidYMid meet">

<g transform="translate(0.000000,2464.000000) scale(0.100000,-0.100000)"
fill="#000000" stroke="none">
<path d="M10893 24590 c-13 -5 -23 -14 -23 -20 0 -5 -15 -10 -32 -10 -52 0
-361 -66 -489 -104 -475 -140 -886 -362 -1254 -677 -112 -96 -340 -328 -422
-432 -394 -492 -633 -1050 -718 -1677 -25 -183 -30 -525 -11 -721 65 -678 307
-1283 722 -1804 113 -141 358 -386 499 -499 503 -400 1084 -644 1745 -731 170
-23 515 -31 676 -16 651 59 1220 291 1764 720 132 104 437 413 544 551 392
507 626 1059 713 1680 25 177 24 613 -1 795 -125 914 -590 1718 -1302 2255
-277 210 -545 354 -864 465 -159 55 -647 195 -680 195 -17 0 -30 5 -30 12 0 6
-3 8 -6 5 -4 -3 -16 0 -28 8 -17 13 -82 15 -401 14 -209 0 -390 -4 -402 -9z"/>
<path d="M3965 21754 c-364 -37 -570 -83 -843 -189 -705 -276 -1294 -850
-1586 -1546 -135 -323 -202 -632 -213 -984 -15 -491 85 -932 311 -1370 374
-727 1045 -1255 1838 -1449 1269 -310 2592 306 3182 1481 442 882 373 1966
-179 2793 -120 180 -233 316 -391 470 -442 430 -986 695 -1589 775 -116 16
-448 27 -530 19z"/>
<path d="M18335 21754 c-187 -19 -256 -28 -365 -50 -749 -149 -1411 -604
-1826 -1256 -36 -57 -100 -173 -143 -258 -152 -306 -238 -595 -277 -935 -20
-176 -15 -564 10 -725 65 -411 215 -800 438 -1135 117 -177 199 -277 353 -431
433 -435 962 -701 1585 -799 138 -22 539 -31 680 -16 930 100 1727 628 2188
1448 341 606 436 1346 262 2028 -204 799 -754 1476 -1495 1840 -302 149 -558
227 -880 270 -116 16 -448 27 -530 19z"/>
<path d="M9636 16439 c-942 -8 -1145 -15 -1334 -49 -788 -142 -1409 -711
-1625 -1490 -89 -318 -91 -389 -90 -2960 0 -2159 6 -2572 38 -2750 102 -569
401 -1013 920 -1365 119 -81 159 -117 190 -170 51 -88 49 101 46 -3500 -3
-3061 -1 -3379 13 -3469 50 -303 183 -495 440 -632 l83 -44 2964 3 2964 2 78
42 c198 108 318 242 388 433 65 179 60 -88 59 3635 -1 3093 1 3385 16 3435 32
111 88 175 243 279 527 355 836 827 900 1376 6 50 16 432 22 850 13 867 6
4191 -10 4445 -16 247 -57 425 -150 644 -157 372 -464 725 -823 948 -249 154
-609 281 -903 317 -45 5 -579 12 -1235 15 -635 4 -1407 8 -1715 10 -308 2
-974 0 -1479 -5z"/>
<path d="M2190 15270 c-403 -13 -645 -67 -924 -206 -576 -286 -929 -816 -998
-1499 -19 -188 -18 -3916 1 -4085 61 -537 289 -938 720 -1264 117 -89 163
-140 193 -215 l23 -56 5 -2690 c6 -2685 6 -2690 27 -2780 74 -320 232 -476
553 -547 l105 -23 2205 0 c1213 0 2213 3 2223 7 16 7 17 132 17 2435 0 2646 4
2471 -56 2590 -16 31 -81 113 -152 191 -300 330 -477 577 -632 883 -159 314
-257 619 -310 964 -19 122 -23 206 -30 660 -47 2961 -38 4159 40 5324 14 207
17 298 10 305 -13 13 -2657 18 -3020 6z"/>
<path d="M17335 15255 c-14 -13 -25 -32 -25 -42 0 -10 16 -121 35 -248 22
-145 39 -299 45 -415 13 -265 21 -3662 11 -4570 -7 -598 -13 -790 -25 -879
-60 -442 -193 -848 -397 -1216 -137 -245 -353 -544 -558 -769 -93 -101 -139
-174 -172 -266 l-23 -65 -7 -790 c-4 -434 -7 -1534 -8 -2443 l-1 -1653 2268 4
c2092 3 2273 4 2350 20 198 41 343 113 430 213 89 102 150 271 172 474 6 60
10 1001 11 2570 0 1361 4 2541 8 2622 7 144 8 148 47 225 34 68 49 86 119 141
458 362 704 794 765 1347 8 71 10 672 8 2065 -4 2177 1 2016 -69 2295 -184
735 -734 1232 -1509 1365 -214 37 -367 40 -1928 40 l-1523 0 -24 -25z"/>
</g>
</svg>
