<?xml version="1.0" encoding="utf-8"?>
<!-- Generator: Adobe Illustrator 26.0.1, SVG Export Plug-In . SVG Version: 6.00 Build 0)  -->
<svg version="1.1" id="Layer_1" xmlns="http://www.w3.org/2000/svg" xmlns:xlink="http://www.w3.org/1999/xlink" x="0px" y="0px"
	 viewBox="0 0 32 40" style="enable-background:new 0 0 32 40;" xml:space="preserve">
<style type="text/css">
	.st0{clip-path:url(#SVGID_00000041993639414269694270000006810237393876926860_);}
	.st1{fill-rule:evenodd;clip-rule:evenodd;}
</style>
<g>
	<defs>
		<rect id="SVGID_1_" width="32" height="32"/>
	</defs>
	<clipPath id="SVGID_00000160905162077099716220000014241922342260568997_">
		<use xlink:href="#SVGID_1_"  style="overflow:visible;"/>
	</clipPath>
	<g style="clip-path:url(#SVGID_00000160905162077099716220000014241922342260568997_);">
		<path class="st1" d="M1,6V2c0-0.3,0.1-0.5,0.3-0.7C1.5,1.1,1.7,1,2,1h24c0.3,0,0.5,0.1,0.7,0.3C26.9,1.5,27,1.7,27,2v4
			c0,0.3-0.1,0.5-0.3,0.7C26.5,6.9,26.3,7,26,7s-0.5-0.1-0.7-0.3C25.1,6.5,25,6.3,25,6V3H15v26h3c0.3,0,0.5,0.1,0.7,0.3
			S19,29.7,19,30s-0.1,0.5-0.3,0.7S18.3,31,18,31h-8c-0.3,0-0.5-0.1-0.7-0.3S9,30.3,9,30s0.1-0.5,0.3-0.7S9.7,29,10,29h3V3H3v3
			c0,0.3-0.1,0.5-0.3,0.7C2.5,6.9,2.3,7,2,7S1.5,6.9,1.3,6.7C1.1,6.5,1,6.3,1,6L1,6z M17,22c0-1.9,0.7-3.6,2.1-4.9
			c1.4-1.4,3-2.1,4.9-2.1s3.6,0.7,4.9,2.1c1.4,1.4,2.1,3,2.1,4.9s-0.7,3.6-2.1,4.9c-1.4,1.4-3,2.1-4.9,2.1s-3.6-0.7-4.9-2.1
			C17.7,25.6,17,23.9,17,22L17,22z M19,22c0,1.4,0.5,2.6,1.5,3.5c1,1,2.2,1.5,3.5,1.5s2.6-0.5,3.5-1.5c1-1,1.5-2.2,1.5-3.5
			s-0.5-2.6-1.5-3.5c-1-1-2.2-1.5-3.5-1.5s-2.6,0.5-3.5,1.5C19.5,19.4,19,20.6,19,22L19,22z M25,23v2c0,0.3-0.1,0.5-0.3,0.7
			S24.3,26,24,26s-0.5-0.1-0.7-0.3S23,25.3,23,25v-2h-2c-0.3,0-0.5-0.1-0.7-0.3S20,22.3,20,22s0.1-0.5,0.3-0.7S20.7,21,21,21h2v-2
			c0-0.3,0.1-0.5,0.3-0.7S23.7,18,24,18s0.5,0.1,0.7,0.3S25,18.7,25,19v2h2c0.3,0,0.5,0.1,0.7,0.3S28,21.7,28,22s-0.1,0.5-0.3,0.7
			S27.3,23,27,23H25L25,23z"/>
	</g>
</g>
</svg>
